<svg width="278" height="44" viewBox="0 0 278 44" fill="none" xmlns="http://www.w3.org/2000/svg">
<path d="M37.6016 19.8047L42.5469 31.5469C43.1875 33.0625 44.0234 33.8203 45.0547 33.8203L45.9922 33.7969H55.7891C57.9453 33.7969 59.0234 34.5312 59.0234 36C59.0234 37.0781 58.6484 37.9141 57.8984 38.5078C57.1484 39.1016 56.0781 39.3984 54.6875 39.3984H43.8828C40.9141 39.3984 38.8516 37.9922 37.6953 35.1797L30.9219 18.8672L27.7812 26.6016C26.2812 30.3047 25.2109 32.8047 24.5703 34.1016C23.9453 35.4141 23.2188 36.625 22.3906 37.7344C19.4062 41.7656 15.6484 43.7812 11.1172 43.7812C7.82031 43.7812 5.14844 42.75 3.10156 40.6875C1.05469 38.625 0.03125 35.9219 0.03125 32.5781C0.03125 28.2188 1.64062 24.3828 4.85938 21.0703C6.59375 19.3047 8.76562 17.8828 11.375 16.8047C13.9844 15.7109 16.5703 15.1641 19.1328 15.1641C20.3516 15.1641 21.3359 15.4453 22.0859 16.0078C22.8516 16.5547 23.2344 17.2734 23.2344 18.1641C23.2344 19.1328 22.8281 19.9062 22.0156 20.4844C21.5469 20.8125 20.6406 21.0469 19.2969 21.1875C16.1719 21.4688 13.6641 22.1797 11.7734 23.3203C10.1797 24.2891 8.92188 25.5391 8 27.0703C7.07812 28.6016 6.61719 30.2031 6.61719 31.875C6.61719 33.6406 7.0625 35.0312 7.95312 36.0469C8.85938 37.0781 10.0859 37.5938 11.6328 37.5938C13.5391 37.5938 15.1875 36.7891 16.5781 35.1797C17.9844 33.5703 19.5234 30.7109 21.1953 26.6016L29.3047 6.60938H26.8906C24.7344 6.60938 23.6562 5.86719 23.6562 4.38281C23.6562 3.30469 24.0312 2.47656 24.7812 1.89844C25.5312 1.30469 26.5938 1.00781 27.9688 1.00781H35.75C37.7812 1.00781 39.2656 1.125 40.2031 1.35938C41.1562 1.59375 42.0703 2.07813 42.9453 2.8125C44.7578 4.32813 45.6641 6.46094 45.6641 9.21094C45.6641 11.7109 44.9219 13.9375 43.4375 15.8906C41.9688 17.8281 40.0234 19.1328 37.6016 19.8047ZM32.3281 15.3984L33.0078 15.3516C34.7891 15.2422 36.1172 14.8984 36.9922 14.3203C38.6797 13.2109 39.5234 11.7188 39.5234 9.84375C39.5234 7.6875 38.4922 6.60938 36.4297 6.60938H35.9141L32.3281 15.3984ZM52.3906 26.1328C52.3906 27.3047 53.2734 27.8906 55.0391 27.8906H62C63.9688 27.8906 64.9531 28.5859 64.9531 29.9766C64.9531 30.9297 64.6016 31.6719 63.8984 32.2031C63.2109 32.7344 62.2422 33 60.9922 33H54.3594C51.8906 33 50.0078 32.3906 48.7109 31.1719C47.4297 29.9531 46.7891 28.1719 46.7891 25.8281C46.7891 22.8125 47.8047 20.2109 49.8359 18.0234C51.8828 15.8359 54.3125 14.7422 57.125 14.7422C59.1719 14.7422 60.8125 15.2812 62.0469 16.3594C63.2969 17.4219 63.9219 18.8281 63.9219 20.5781C63.9219 22.6875 63.0625 24.25 61.3438 25.2656C60.3906 25.8438 58.9688 26.1328 57.0781 26.1328H52.3906ZM53.5156 21.8672H56.0938C57.7656 21.8672 58.5781 21.5 58.5312 20.7656C58.4844 19.9375 57.9453 19.5234 56.9141 19.5234C55.4766 19.5234 54.3438 20.3047 53.5156 21.8672ZM77.5625 15.0703H78.2891C80.2734 15.0703 81.2656 15.7656 81.2656 17.1562C81.2656 18.1094 80.9141 18.8516 80.2109 19.3828C79.5078 19.9141 78.5391 20.1797 77.3047 20.1797H75.5938L72.4531 27.8906H75.0781C77.0625 27.8906 78.0547 28.5859 78.0547 29.9766C78.0547 30.9297 77.7031 31.6719 77 32.2031C76.3125 32.7344 75.3438 33 74.0938 33H69.8984C68.7109 33 67.7656 32.7266 67.0625 32.1797C66.375 31.6328 66.0312 30.8906 66.0312 29.9531C66.0312 29.375 66.1719 28.7344 66.4531 28.0312L66.8984 27L69.6641 20.1797H69.3125C67.5625 20.1797 66.6875 19.5 66.6875 18.1406C66.6875 17.1719 67.0312 16.4219 67.7188 15.8906C68.4219 15.3438 69.3984 15.0703 70.6484 15.0703H71.7266L72.9688 12L73.2266 11.3672C73.9609 9.63281 75.1172 8.76562 76.6953 8.76562C77.3359 8.76562 77.8828 8.98437 78.3359 9.42188C78.8047 9.84375 79.0391 10.3594 79.0391 10.9688C79.0391 11.5625 78.8359 12.3125 78.4297 13.2188L77.5625 15.0703ZM86.1406 20.2031L85.3438 22.1719C84.625 23.9219 83.6875 24.7969 82.5312 24.7969C81.8281 24.7969 81.2422 24.5859 80.7734 24.1641C80.3047 23.7422 80.0703 23.2188 80.0703 22.5938C80.0703 22.2344 80.2422 21.625 80.5859 20.7656L83.2344 14.2266C83.875 12.6484 84.7812 11.8594 85.9531 11.8594C87.1094 11.8594 87.8203 12.4062 88.0859 13.5L88.2734 14.2266C88.3672 14.6016 88.5078 14.8359 88.6953 14.9297C88.8828 15.0234 89.3438 15.0703 90.0781 15.0703H95.5625C97.6094 15.0703 98.6328 15.7891 98.6328 17.2266C98.6328 19.2109 97.3359 20.2031 94.7422 20.2031L94.4844 20.4375C92 22.8125 90.7578 24.6484 90.7578 25.9453C90.7578 27.2422 91.4766 27.8906 92.9141 27.8906H95.8672C97.8516 27.8906 98.8438 28.5781 98.8438 29.9531C98.8438 30.9219 98.4922 31.6719 97.7891 32.2031C97.1016 32.7344 96.1328 33 94.8828 33H90.2891C88.7266 33 87.4453 32.4609 86.4453 31.3828C85.4609 30.3047 84.9688 28.9062 84.9688 27.1875C84.9688 26.0938 85.2344 25.0312 85.7656 24C86.2969 22.9688 87.2344 21.7031 88.5781 20.2031H86.1406ZM110.727 14.7422C112.992 14.7422 114.852 15.4609 116.305 16.8984C117.773 18.3359 118.508 20.1641 118.508 22.3828C118.508 24.0547 118.125 25.7188 117.359 27.375C116.594 29.0156 115.602 30.3281 114.383 31.3125C113.57 31.9531 112.727 32.3984 111.852 32.6484C110.992 32.8828 109.781 33 108.219 33C105.672 33 103.953 32.6953 103.062 32.0859C100.969 30.6484 99.9219 28.5234 99.9219 25.7109C99.9219 22.7422 100.992 20.1719 103.133 18C105.273 15.8281 107.805 14.7422 110.727 14.7422ZM110.164 19.7344C109.008 19.7344 107.953 20.3047 107 21.4453C106.047 22.5859 105.57 23.8438 105.57 25.2188C105.57 27.0312 106.586 27.9375 108.617 27.9375C109.805 27.9375 110.719 27.5703 111.359 26.8359C112.422 25.6328 112.953 24.2578 112.953 22.7109C112.953 21.8203 112.695 21.1016 112.18 20.5547C111.664 20.0078 110.992 19.7344 110.164 19.7344ZM147.945 27.8906H150.734C152.703 27.8906 153.688 28.5859 153.688 29.9766C153.688 30.9297 153.336 31.6719 152.633 32.2031C151.945 32.7344 150.984 33 149.75 33H144.992C143.961 33 143.125 32.7266 142.484 32.1797C141.844 31.6328 141.523 30.9141 141.523 30.0234C141.523 29.4141 141.734 28.5859 142.156 27.5391L144.359 22.1719C144.484 21.8594 144.547 21.5703 144.547 21.3047C144.547 20.2891 144.031 19.7812 143 19.7812C142.203 19.7812 141.414 20.1406 140.633 20.8594C139.852 21.5781 139.227 22.5312 138.758 23.7188L136.133 30.1875C135.273 32.2812 134.023 33.3281 132.383 33.3281C131.742 33.3281 131.195 33.1172 130.742 32.6953C130.289 32.2734 130.062 31.7734 130.062 31.1953C130.062 30.7422 130.18 30.2109 130.414 29.6016L130.672 28.9688L133.32 22.4297C133.555 21.8516 133.672 21.3984 133.672 21.0703C133.672 20.7266 133.516 20.4297 133.203 20.1797C132.891 19.9141 132.523 19.7812 132.102 19.7812C130.414 19.7812 129.078 21 128.094 23.4375L125.352 30.1641C124.492 32.2734 123.25 33.3281 121.625 33.3281C120.984 33.3281 120.43 33.125 119.961 32.7188C119.508 32.2969 119.281 31.7891 119.281 31.1953C119.281 30.7266 119.398 30.1953 119.633 29.6016L119.891 28.9688L124.555 17.4844C125.211 15.875 126.195 15.0703 127.508 15.0703C128.867 15.0703 129.711 15.7109 130.039 16.9922C131.102 16.0859 131.961 15.4844 132.617 15.1875C133.289 14.8906 134.109 14.7422 135.078 14.7422C137.172 14.7422 138.742 15.6562 139.789 17.4844C141.539 15.6562 143.508 14.7422 145.695 14.7422C147.195 14.7422 148.445 15.1797 149.445 16.0547C150.461 16.9141 150.969 17.9766 150.969 19.2422C150.969 20.0391 150.797 20.8594 150.453 21.7031L147.945 27.8906ZM170.586 27.8906H173.164C175.133 27.8906 176.117 28.5781 176.117 29.9531C176.117 30.9062 175.766 31.6562 175.062 32.2031C174.359 32.7344 173.391 33 172.156 33H169.156C167.812 33 166.898 32.4766 166.414 31.4297C165.242 32.4766 164.109 33 163.016 33H160.344C158.625 33 157.234 32.3906 156.172 31.1719C155.125 29.9375 154.602 28.3281 154.602 26.3438C154.602 23.3438 155.633 20.6641 157.695 18.3047C159.773 15.9297 162.117 14.7422 164.727 14.7422C166.727 14.7422 168.188 15.4375 169.109 16.8281C169.891 15.6562 170.914 15.0703 172.18 15.0703C172.867 15.0703 173.438 15.2891 173.891 15.7266C174.359 16.1641 174.594 16.7031 174.594 17.3438C174.594 17.7812 174.469 18.3047 174.219 18.9141L173.961 19.5469L170.586 27.8906ZM162.078 28.0078H162.664C163.945 28.0078 164.797 27.4844 165.219 26.4375L166.859 22.3828C167.078 21.8516 167.188 21.4062 167.188 21.0469C167.188 20.625 166.977 20.2578 166.555 19.9453C166.148 19.6328 165.656 19.4766 165.078 19.4766C163.938 19.4766 162.828 20.1406 161.75 21.4688C160.672 22.7969 160.133 24.1719 160.133 25.5938C160.133 27.2031 160.781 28.0078 162.078 28.0078ZM190.461 33H183.664C181.711 33 180.117 32.3125 178.883 30.9375C177.664 29.5625 177.055 27.7812 177.055 25.5938C177.055 22.6719 178.062 20.1328 180.078 17.9766C182.094 15.8203 184.461 14.7422 187.18 14.7422C189.023 14.7422 190.523 15.2578 191.68 16.2891C192.836 17.3203 193.414 18.6641 193.414 20.3203C193.414 21.4766 193.125 22.4297 192.547 23.1797C191.969 23.9141 191.227 24.2812 190.32 24.2812C188.883 24.2812 188.164 23.6094 188.164 22.2656C188.164 22.0625 188.164 21.8906 188.164 21.75C188.18 21.5781 188.188 21.4141 188.188 21.2578C188.188 20.1641 187.648 19.6172 186.57 19.6172C185.555 19.6172 184.625 20.1562 183.781 21.2344C182.953 22.3125 182.539 23.5156 182.539 24.8438C182.539 25.9531 182.875 26.7422 183.547 27.2109C184.234 27.6641 185.391 27.8906 187.016 27.8906H191.445C193.43 27.8906 194.422 28.5859 194.422 29.9766C194.422 30.9141 194.062 31.6562 193.344 32.2031C192.641 32.7344 191.68 33 190.461 33ZM206.586 16.0781C208.227 15.1875 209.578 14.7422 210.641 14.7422C212.141 14.7422 213.367 15.1641 214.32 16.0078C215.289 16.8359 215.773 17.8984 215.773 19.1953C215.773 19.9766 215.586 20.8281 215.211 21.75L212.75 27.8906H215.445C217.414 27.8906 218.398 28.5859 218.398 29.9766C218.398 30.9297 218.047 31.6719 217.344 32.2031C216.656 32.7344 215.688 33 214.438 33H209.727C208.727 33 207.883 32.7188 207.195 32.1562C206.523 31.5781 206.188 30.875 206.188 30.0469C206.188 29.4844 206.367 28.7656 206.727 27.8906L208.883 22.5938C209.148 21.9219 209.281 21.4141 209.281 21.0703C209.281 20.1797 208.688 19.7344 207.5 19.7344C205.906 19.7344 204.562 21.0938 203.469 23.8125L200.844 30.2578C200.016 32.3047 198.789 33.3281 197.164 33.3281C196.523 33.3281 195.977 33.125 195.523 32.7188C195.07 32.3125 194.844 31.8203 194.844 31.2422C194.844 30.8047 194.961 30.2891 195.195 29.6953L195.453 29.0625L205.648 3.91406C206.539 1.75781 207.758 0.679688 209.305 0.679688C209.945 0.679688 210.492 0.898437 210.945 1.33594C211.414 1.75781 211.648 2.27344 211.648 2.88281C211.648 3.38281 211.445 4.125 211.039 5.10938L206.586 16.0781ZM225.828 27.8906H228.477C230.445 27.8906 231.43 28.5859 231.43 29.9766C231.43 30.9297 231.078 31.6719 230.375 32.2031C229.688 32.7344 228.719 33 227.469 33H223.742C222.367 33 221.281 32.7188 220.484 32.1562C219.703 31.5938 219.312 30.8281 219.312 29.8594C219.312 29.3438 219.477 28.6875 219.805 27.8906L223.672 18.375L223.93 17.7188C224.648 15.9531 225.805 15.0703 227.398 15.0703C228.055 15.0703 228.617 15.2891 229.086 15.7266C229.57 16.1641 229.812 16.6875 229.812 17.2969C229.812 17.7969 229.602 18.5625 229.18 19.5938L225.828 27.8906ZM228.922 7.59375C229.828 7.59375 230.594 7.91406 231.219 8.55469C231.859 9.17969 232.18 9.94531 232.18 10.8516C232.18 11.7578 231.859 12.5312 231.219 13.1719C230.594 13.7969 229.828 14.1094 228.922 14.1094C228.016 14.1094 227.242 13.7969 226.602 13.1719C225.977 12.5312 225.664 11.7578 225.664 10.8516C225.664 9.94531 225.977 9.17969 226.602 8.55469C227.242 7.91406 228.016 7.59375 228.922 7.59375ZM249.711 27.8906H252.523C254.508 27.8906 255.5 28.5859 255.5 29.9766C255.5 30.9297 255.148 31.6719 254.445 32.2031C253.742 32.7344 252.773 33 251.539 33H246.641C245.688 33 244.883 32.7109 244.227 32.1328C243.586 31.5547 243.266 30.8281 243.266 29.9531C243.266 29.4219 243.484 28.625 243.922 27.5625L245.984 22.4531C246.203 21.9219 246.32 21.4922 246.336 21.1641C246.352 20.7891 246.195 20.4688 245.867 20.2031C245.555 19.9375 245.148 19.8047 244.648 19.8047C243.039 19.8047 241.742 21.0156 240.758 23.4375L237.992 30.2344C237.164 32.2969 235.93 33.3281 234.289 33.3281C233.617 33.3281 233.047 33.125 232.578 32.7188C232.109 32.3125 231.875 31.8125 231.875 31.2188C231.875 30.7812 232 30.2578 232.25 29.6484L232.508 29.0156L237.242 17.3438C237.852 15.8281 238.891 15.0703 240.359 15.0703C241.562 15.0703 242.422 15.6016 242.938 16.6641C244.609 15.3828 246.203 14.7422 247.719 14.7422C249.188 14.7422 250.398 15.1641 251.352 16.0078C252.305 16.8516 252.781 17.9219 252.781 19.2188C252.781 19.9375 252.609 20.7266 252.266 21.5859L249.711 27.8906ZM272.398 27.8906H274.977C276.945 27.8906 277.93 28.5781 277.93 29.9531C277.93 30.9062 277.578 31.6562 276.875 32.2031C276.172 32.7344 275.203 33 273.969 33H270.969C269.625 33 268.711 32.4766 268.227 31.4297C267.055 32.4766 265.922 33 264.828 33H262.156C260.438 33 259.047 32.3906 257.984 31.1719C256.938 29.9375 256.414 28.3281 256.414 26.3438C256.414 23.3438 257.445 20.6641 259.508 18.3047C261.586 15.9297 263.93 14.7422 266.539 14.7422C268.539 14.7422 270 15.4375 270.922 16.8281C271.703 15.6562 272.727 15.0703 273.992 15.0703C274.68 15.0703 275.25 15.2891 275.703 15.7266C276.172 16.1641 276.406 16.7031 276.406 17.3438C276.406 17.7812 276.281 18.3047 276.031 18.9141L275.773 19.5469L272.398 27.8906ZM263.891 28.0078H264.477C265.758 28.0078 266.609 27.4844 267.031 26.4375L268.672 22.3828C268.891 21.8516 269 21.4062 269 21.0469C269 20.625 268.789 20.2578 268.367 19.9453C267.961 19.6328 267.469 19.4766 266.891 19.4766C265.75 19.4766 264.641 20.1406 263.562 21.4688C262.484 22.7969 261.945 24.1719 261.945 25.5938C261.945 27.2031 262.594 28.0078 263.891 28.0078Z" fill="#F4F2E6"/>
</svg>
