<svg width="307" height="21" viewBox="0 0 307 21" fill="none" xmlns="http://www.w3.org/2000/svg">
<path d="M14.2319 5.328C14.4239 5.328 14.6239 5.344 14.8319 5.376C15.0399 5.408 15.2319 5.464 15.4079 5.544C15.5839 5.624 15.7279 5.736 15.8399 5.88C15.9679 6.024 16.0319 6.216 16.0319 6.456C16.0319 6.68 15.9679 6.864 15.8399 7.008C15.7119 7.152 15.5519 7.264 15.3599 7.344C15.1839 7.424 14.9839 7.48 14.7599 7.512C14.5519 7.544 14.3679 7.56 14.2079 7.56H5.32794V5.328H14.2319ZM14.2079 8.88C14.5919 8.88 14.9679 8.84 15.3359 8.76C15.7199 8.664 16.0639 8.52 16.3679 8.328C16.6719 8.136 16.9119 7.888 17.0879 7.584C17.2799 7.264 17.3759 6.888 17.3759 6.456C17.3759 6.008 17.2879 5.624 17.1119 5.304C16.9359 4.984 16.6959 4.728 16.3919 4.536C16.1039 4.344 15.7679 4.208 15.3839 4.128C15.0159 4.032 14.6319 3.984 14.2319 3.984H4.00794V8.88H14.2079ZM16.3919 9.96C16.1679 10.088 15.9199 10.184 15.6479 10.248C15.3759 10.312 15.1199 10.376 14.8799 10.44C15.7759 11.496 16.6719 12.536 17.5679 13.56C18.4799 14.584 19.3919 15.624 20.3039 16.68H18.3599L12.8159 10.32H4.00794V16.68H2.51994V2.52H14.2319C14.8879 2.52 15.4959 2.592 16.0559 2.736C16.6319 2.88 17.1199 3.112 17.5199 3.432C17.9359 3.752 18.2559 4.16 18.4799 4.656C18.7199 5.152 18.8399 5.752 18.8399 6.456C18.8399 7.336 18.6399 8.064 18.2399 8.64C17.8399 9.2 17.2319 9.64 16.4159 9.96H16.3919ZM20.1839 6.456C20.1839 5.544 20.0399 4.76 19.7519 4.104C19.4639 3.432 19.0559 2.88 18.5279 2.448C17.9999 2.016 17.3679 1.696 16.6319 1.488C15.9119 1.28 15.1119 1.176 14.2319 1.176H1.22394V18.024H5.32794V11.64H12.1919L17.7119 18.024H23.2319L17.1839 11.088C19.1839 10.208 20.1839 8.664 20.1839 6.456ZM0.623938 18.624V0.576H14.2319C14.8559 0.576 15.4559 0.624 16.0319 0.719999C16.6079 0.799999 17.1839 0.975999 17.7599 1.248C18.3519 1.52 18.9599 1.912 19.5839 2.424C20.2239 2.936 20.9039 3.616 21.6239 4.464C22.0879 4.928 22.4479 5.552 22.7039 6.336C22.9759 7.104 23.1119 7.944 23.1119 8.856C23.1119 9.912 22.8799 10.848 22.4159 11.664C21.9679 12.48 21.3119 13.144 20.4479 13.656C20.9439 14.232 21.4639 14.832 22.0079 15.456C22.5519 16.08 23.0959 16.712 23.6399 17.352C24.1839 17.976 24.7199 18.592 25.2479 19.2C25.7919 19.824 26.3039 20.408 26.7839 20.952H19.8719L17.4479 18.624L13.9439 14.568H8.25594V20.952H3.09594L0.623938 18.624ZM43.7345 8.88V10.32H31.5185V15.216H46.2305V16.68H30.0305V2.52H46.2065V3.984H31.5185V8.88H43.7345ZM47.5505 5.328V1.176H28.6865V18.024H47.5745V13.872H32.8385V11.64H45.0545V7.56H32.8385V5.328H47.5505ZM28.0865 18.624V0.576H48.1505L50.4785 3.048V8.256H46.8065L47.9825 9.432V13.272L50.5025 15.744V20.952H30.5585L28.0865 18.624ZM63.1046 3.984H55.0646V2.52H72.6086V3.984H64.5446V16.68H63.1046V3.984ZM65.8646 5.328H73.9286V1.176H53.7446V5.328H61.7846V18.024H65.8646V5.328ZM53.1446 5.928V0.576H74.5286L76.8566 3.048V8.256H68.7926V20.952H63.6566L61.1846 18.624V8.256H55.6166L53.1446 5.928ZM92.9819 5.328C93.1739 5.328 93.3739 5.344 93.5819 5.376C93.7899 5.408 93.9819 5.464 94.1579 5.544C94.3339 5.624 94.4779 5.736 94.5899 5.88C94.7179 6.024 94.7819 6.216 94.7819 6.456C94.7819 6.68 94.7179 6.864 94.5899 7.008C94.4619 7.152 94.3019 7.264 94.1099 7.344C93.9339 7.424 93.7339 7.48 93.5099 7.512C93.3019 7.544 93.1179 7.56 92.9579 7.56H84.0779V5.328H92.9819ZM92.9579 8.88C93.3419 8.88 93.7179 8.84 94.0859 8.76C94.4699 8.664 94.8139 8.52 95.1179 8.328C95.4219 8.136 95.6619 7.888 95.8379 7.584C96.0299 7.264 96.1259 6.888 96.1259 6.456C96.1259 6.008 96.0379 5.624 95.8619 5.304C95.6859 4.984 95.4459 4.728 95.1419 4.536C94.8539 4.344 94.5179 4.208 94.1339 4.128C93.7659 4.032 93.3819 3.984 92.9819 3.984H82.7579V8.88H92.9579ZM95.1419 9.96C94.9179 10.088 94.6699 10.184 94.3979 10.248C94.1259 10.312 93.8699 10.376 93.6299 10.44C94.5259 11.496 95.4219 12.536 96.3179 13.56C97.2299 14.584 98.1419 15.624 99.0539 16.68H97.1099L91.5659 10.32H82.7579V16.68H81.2699V2.52H92.9819C93.6379 2.52 94.2459 2.592 94.8059 2.736C95.3819 2.88 95.8699 3.112 96.2699 3.432C96.6859 3.752 97.0059 4.16 97.2299 4.656C97.4699 5.152 97.5899 5.752 97.5899 6.456C97.5899 7.336 97.3899 8.064 96.9899 8.64C96.5899 9.2 95.9819 9.64 95.1659 9.96H95.1419ZM98.9339 6.456C98.9339 5.544 98.7899 4.76 98.5019 4.104C98.2139 3.432 97.8059 2.88 97.2779 2.448C96.7499 2.016 96.1179 1.696 95.3819 1.488C94.6619 1.28 93.8619 1.176 92.9819 1.176H79.9739V18.024H84.0779V11.64H90.9419L96.4619 18.024H101.982L95.9339 11.088C97.9339 10.208 98.9339 8.664 98.9339 6.456ZM79.3739 18.624V0.576H92.9819C93.6059 0.576 94.2059 0.624 94.7819 0.719999C95.3579 0.799999 95.9339 0.975999 96.5099 1.248C97.1019 1.52 97.7099 1.912 98.3339 2.424C98.9739 2.936 99.6539 3.616 100.374 4.464C100.838 4.928 101.198 5.552 101.454 6.336C101.726 7.104 101.862 7.944 101.862 8.856C101.862 9.912 101.63 10.848 101.166 11.664C100.718 12.48 100.062 13.144 99.1979 13.656C99.6939 14.232 100.214 14.832 100.758 15.456C101.302 16.08 101.846 16.712 102.39 17.352C102.934 17.976 103.47 18.592 103.998 19.2C104.542 19.824 105.054 20.408 105.534 20.952H98.6219L96.1979 18.624L92.6939 14.568H87.0059V20.952H81.8459L79.3739 18.624ZM118.019 15.216C118.947 15.216 119.811 15.12 120.611 14.928C121.427 14.72 122.131 14.4 122.723 13.968C123.331 13.52 123.803 12.944 124.139 12.24C124.475 11.52 124.643 10.64 124.643 9.6C124.643 8.576 124.467 7.704 124.115 6.984C123.779 6.264 123.315 5.688 122.723 5.256C122.131 4.808 121.427 4.488 120.611 4.296C119.811 4.088 118.947 3.984 118.019 3.984H115.379C114.435 3.984 113.555 4.088 112.739 4.296C111.939 4.488 111.243 4.808 110.651 5.256C110.059 5.688 109.587 6.264 109.235 6.984C108.899 7.704 108.731 8.576 108.731 9.6C108.731 10.64 108.899 11.52 109.235 12.24C109.587 12.944 110.059 13.52 110.651 13.968C111.243 14.416 111.939 14.736 112.739 14.928C113.555 15.12 114.435 15.216 115.379 15.216H118.019ZM115.379 13.872C114.659 13.872 113.979 13.8 113.339 13.656C112.699 13.512 112.139 13.28 111.659 12.96C111.179 12.624 110.795 12.184 110.507 11.64C110.219 11.096 110.075 10.416 110.075 9.6C110.075 8.8 110.219 8.128 110.507 7.584C110.795 7.04 111.179 6.6 111.659 6.264C112.155 5.928 112.723 5.688 113.363 5.544C114.003 5.4 114.675 5.328 115.379 5.328H118.019C118.723 5.328 119.395 5.4 120.035 5.544C120.675 5.688 121.235 5.928 121.715 6.264C122.195 6.6 122.579 7.04 122.867 7.584C123.155 8.128 123.299 8.8 123.299 9.6C123.299 10.4 123.155 11.072 122.867 11.616C122.595 12.16 122.219 12.6 121.739 12.936C121.259 13.272 120.699 13.512 120.059 13.656C119.419 13.8 118.739 13.872 118.019 13.872H115.379ZM107.219 9.6C107.219 8.304 107.419 7.208 107.819 6.312C108.235 5.416 108.803 4.688 109.523 4.128C110.259 3.552 111.123 3.144 112.115 2.904C113.123 2.648 114.211 2.52 115.379 2.52H118.019C119.187 2.52 120.267 2.648 121.259 2.904C122.251 3.16 123.107 3.568 123.827 4.128C124.563 4.688 125.131 5.416 125.531 6.312C125.947 7.208 126.155 8.304 126.155 9.6C126.155 10.896 125.947 11.992 125.531 12.888C125.131 13.784 124.563 14.512 123.827 15.072C123.107 15.632 122.251 16.04 121.259 16.296C120.267 16.552 119.187 16.68 118.019 16.68H115.379C114.211 16.68 113.123 16.56 112.115 16.32C111.123 16.064 110.259 15.656 109.523 15.096C108.803 14.52 108.235 13.784 107.819 12.888C107.419 11.992 107.219 10.896 107.219 9.6ZM105.875 9.6C105.875 11.12 106.107 12.416 106.571 13.488C107.051 14.544 107.707 15.408 108.539 16.08C109.387 16.752 110.387 17.248 111.539 17.568C112.707 17.872 113.987 18.024 115.379 18.024H118.019C119.411 18.024 120.683 17.872 121.835 17.568C122.987 17.248 123.979 16.752 124.811 16.08C125.659 15.408 126.315 14.544 126.779 13.488C127.243 12.416 127.475 11.12 127.475 9.6C127.475 8.08 127.243 6.792 126.779 5.736C126.315 4.664 125.659 3.792 124.811 3.12C123.979 2.448 122.987 1.96 121.835 1.656C120.683 1.336 119.411 1.176 118.019 1.176H115.379C113.987 1.176 112.707 1.336 111.539 1.656C110.387 1.96 109.387 2.448 108.539 3.12C107.707 3.792 107.051 4.664 106.571 5.736C106.107 6.792 105.875 8.08 105.875 9.6ZM105.275 9.6C105.275 7.968 105.523 6.584 106.019 5.448C106.515 4.296 107.211 3.36 108.107 2.64C109.003 1.92 110.067 1.4 111.299 1.08C112.547 0.743999 113.907 0.576 115.379 0.576H118.019C118.947 0.576 119.819 0.631999 120.635 0.743999C121.467 0.839999 122.283 1.056 123.083 1.392C123.883 1.712 124.675 2.176 125.459 2.784C126.259 3.376 127.083 4.176 127.931 5.184C128.651 5.904 129.243 6.856 129.707 8.04C130.171 9.224 130.403 10.544 130.403 12C130.403 13.616 130.155 14.992 129.659 16.128C129.179 17.264 128.491 18.184 127.595 18.888C126.715 19.608 125.659 20.128 124.427 20.448C123.211 20.784 121.875 20.952 120.419 20.952H117.779C116.147 20.952 114.627 20.768 113.219 20.4C111.811 20.032 110.651 19.4 109.739 18.504C108.827 17.704 108.083 16.952 107.507 16.248C106.931 15.528 106.475 14.816 106.139 14.112C105.819 13.408 105.595 12.688 105.467 11.952C105.339 11.216 105.275 10.432 105.275 9.6ZM118.019 13.272C118.643 13.272 119.235 13.216 119.795 13.104C120.371 12.976 120.875 12.768 121.307 12.48C121.739 12.192 122.075 11.816 122.315 11.352C122.571 10.872 122.699 10.288 122.699 9.6C122.699 9.216 122.651 8.864 122.555 8.544C121.899 8.352 121.187 8.256 120.419 8.256H117.779C117.139 8.256 116.531 8.32 115.955 8.448C115.379 8.576 114.867 8.784 114.419 9.072C113.987 9.36 113.643 9.744 113.387 10.224C113.131 10.704 113.003 11.296 113.003 12C113.003 12.384 113.035 12.704 113.099 12.96C113.435 13.072 113.795 13.152 114.179 13.2C114.563 13.248 114.963 13.272 115.379 13.272H118.019ZM135.13 2.52H136.378L144.658 14.808C146.018 12.728 147.386 10.672 148.762 8.64C150.154 6.608 151.554 4.568 152.962 2.52H154.21V16.68H152.722V5.544L145.258 16.68H144.082L136.618 5.568V16.68H135.13V2.52ZM137.938 9.936L143.338 18.024H145.978L151.402 9.912V18.024H155.53V1.176H152.218L144.634 12.408L137.098 1.176H133.81V18.024H137.938V9.936ZM139.762 3.048L144.97 10.848L151.93 0.576H156.13L158.458 3.048V20.952H153.274L150.802 18.624V17.736L148.642 20.952H145.474L143.05 18.624L140.866 15.36V20.952H135.682L133.21 18.624V0.576H137.386L139.762 3.048ZM179.53 11.472L174.466 4.296L169.282 11.472H179.53ZM176.938 10.176H171.85L174.418 6.576L176.938 10.176ZM183.106 16.68L180.514 12.96H168.25C167.802 13.568 167.362 14.192 166.93 14.832C166.514 15.456 166.082 16.072 165.634 16.68H163.714C165.41 14.296 167.098 11.936 168.778 9.6C170.474 7.264 172.162 4.904 173.842 2.52H174.994L184.906 16.68H183.106ZM173.194 1.176L161.194 18.024H166.282L168.922 14.304H179.77L182.386 18.024H187.474L175.714 1.176H173.194ZM178.402 3.048L190.882 20.952H184.498L182.074 18.624L181.09 17.232H171.61C171.418 17.52 171.202 17.824 170.962 18.144C170.738 18.464 170.506 18.784 170.266 19.104C170.042 19.44 169.818 19.76 169.594 20.064C169.37 20.384 169.162 20.68 168.97 20.952H162.562L160.018 18.624L172.882 0.576H176.026L178.402 3.048ZM197.946 3.984C197.002 3.984 196.122 4.088 195.306 4.296C194.506 4.488 193.81 4.808 193.218 5.256C192.626 5.688 192.154 6.264 191.802 6.984C191.466 7.704 191.298 8.576 191.298 9.6C191.298 10.64 191.466 11.52 191.802 12.24C192.154 12.944 192.626 13.52 193.218 13.968C193.81 14.416 194.506 14.736 195.306 14.928C196.122 15.12 197.002 15.216 197.946 15.216H200.562C201.682 15.216 202.77 15.048 203.826 14.712C204.898 14.36 205.818 13.752 206.586 12.888L208.122 13.848C207.674 14.472 207.162 14.976 206.586 15.36C206.01 15.728 205.394 16.008 204.738 16.2C204.082 16.392 203.394 16.52 202.674 16.584C201.97 16.648 201.266 16.68 200.562 16.68H197.946C196.778 16.68 195.69 16.56 194.682 16.32C193.69 16.064 192.826 15.656 192.09 15.096C191.37 14.52 190.802 13.784 190.386 12.888C189.986 11.992 189.786 10.896 189.786 9.6C189.786 8.304 189.986 7.208 190.386 6.312C190.802 5.416 191.37 4.688 192.09 4.128C192.826 3.552 193.69 3.144 194.682 2.904C195.69 2.648 196.778 2.52 197.946 2.52H200.562C201.266 2.52 201.97 2.552 202.674 2.616C203.394 2.68 204.082 2.808 204.738 3C205.394 3.192 206.01 3.48 206.586 3.864C207.162 4.232 207.674 4.728 208.122 5.352L206.586 6.312C205.818 5.448 204.898 4.848 203.826 4.512C202.77 4.16 201.682 3.984 200.562 3.984H197.946ZM200.562 5.328C201.714 5.328 202.77 5.544 203.73 5.976C204.69 6.392 205.506 7.08 206.178 8.04L209.994 5.784C209.45 4.856 208.842 4.096 208.17 3.504C207.498 2.896 206.762 2.424 205.962 2.088C205.178 1.736 204.33 1.496 203.418 1.368C202.522 1.24 201.57 1.176 200.562 1.176H197.946C196.554 1.176 195.274 1.336 194.106 1.656C192.954 1.96 191.954 2.448 191.106 3.12C190.274 3.792 189.618 4.664 189.138 5.736C188.674 6.792 188.442 8.08 188.442 9.6C188.442 11.12 188.674 12.416 189.138 13.488C189.618 14.544 190.274 15.408 191.106 16.08C191.954 16.752 192.954 17.248 194.106 17.568C195.274 17.872 196.554 18.024 197.946 18.024H200.562C201.57 18.024 202.522 17.96 203.418 17.832C204.33 17.704 205.178 17.472 205.962 17.136C206.762 16.784 207.498 16.312 208.17 15.72C208.842 15.128 209.45 14.36 209.994 13.416L206.178 11.16C205.506 12.12 204.69 12.816 203.73 13.248C202.77 13.664 201.714 13.872 200.562 13.872H197.946C197.226 13.872 196.546 13.8 195.906 13.656C195.266 13.512 194.706 13.28 194.226 12.96C193.746 12.624 193.362 12.184 193.074 11.64C192.786 11.096 192.642 10.416 192.642 9.6C192.642 8.8 192.786 8.128 193.074 7.584C193.362 7.04 193.746 6.6 194.226 6.264C194.722 5.928 195.29 5.688 195.93 5.544C196.57 5.4 197.242 5.328 197.946 5.328H200.562ZM192.042 18.336C191.13 17.536 190.402 16.792 189.858 16.104C189.314 15.4 188.89 14.712 188.586 14.04C188.282 13.352 188.082 12.648 187.986 11.928C187.89 11.208 187.842 10.432 187.842 9.6C187.842 7.968 188.09 6.584 188.586 5.448C189.082 4.296 189.778 3.36 190.674 2.64C191.57 1.92 192.634 1.4 193.866 1.08C195.114 0.743999 196.474 0.576 197.946 0.576H200.562C201.474 0.576 202.346 0.616 203.178 0.696C204.026 0.76 204.866 0.952 205.698 1.272C206.53 1.592 207.378 2.072 208.242 2.712C209.106 3.352 210.034 4.24 211.026 5.376C211.186 5.552 211.362 5.76 211.554 6C211.746 6.24 211.93 6.496 212.106 6.768C212.282 7.04 212.458 7.32 212.634 7.608C212.81 7.88 212.97 8.136 213.114 8.376L208.434 11.136L206.61 9.312C206.05 8.944 205.466 8.68 204.858 8.52C204.25 8.344 203.618 8.256 202.962 8.256H200.346C199.706 8.256 199.098 8.32 198.522 8.448C197.946 8.576 197.434 8.784 196.986 9.072C196.554 9.36 196.21 9.744 195.954 10.224C195.698 10.704 195.57 11.296 195.57 12C195.57 12.384 195.602 12.704 195.666 12.96C196.002 13.072 196.362 13.152 196.746 13.2C197.13 13.248 197.53 13.272 197.946 13.272H200.562C201.618 13.272 202.61 13.048 203.538 12.6C204.482 12.152 205.314 11.408 206.034 10.368L210.834 13.2L213.114 15.624C212.474 16.712 211.778 17.6 211.026 18.288C210.29 18.976 209.498 19.512 208.65 19.896C207.802 20.296 206.906 20.568 205.962 20.712C205.018 20.872 204.018 20.952 202.962 20.952H200.346C199.53 20.952 198.722 20.896 197.922 20.784C197.138 20.688 196.378 20.528 195.642 20.304C194.922 20.096 194.25 19.824 193.626 19.488C193.018 19.168 192.49 18.784 192.042 18.336ZM232.832 10.32H219.44V16.68H217.976V2.52H219.44V8.88H232.832V2.52H234.32V16.68H232.832V10.32ZM235.664 1.176H231.488V7.56H220.784V1.176H216.632V18.024H220.784V11.64H231.488V18.024H235.664V1.176ZM223.712 6.96H230.888V0.576H236.264L238.592 3.048V20.952H233.36L230.888 18.624V14.568H223.712V20.952H218.504L216.032 18.624V0.576H221.384L223.712 3.048V6.96ZM242.932 2.52H244.372V16.68H242.932V2.52ZM245.692 1.176H241.612V18.024H245.692V1.176ZM241.012 18.624V0.576H246.292L248.62 3.048V20.952H243.484L241.012 18.624ZM255.789 4.8V16.68H254.373V2.52H255.597L268.485 14.4V2.52H269.925V16.68H268.725L255.789 4.8ZM271.269 1.176H267.165V11.376L256.053 1.176H253.029V18.024H257.133V7.8L268.269 18.024H271.269V1.176ZM252.429 18.624V0.576H256.269L266.565 10.008V0.576H271.869L274.197 3.048V20.952H270.453L260.061 11.424V20.952H254.901L252.429 18.624ZM294.913 11.472L289.849 4.296L284.665 11.472H294.913ZM292.321 10.176H287.233L289.801 6.576L292.321 10.176ZM298.489 16.68L295.897 12.96H283.633C283.185 13.568 282.745 14.192 282.312 14.832C281.897 15.456 281.465 16.072 281.017 16.68H279.097C280.793 14.296 282.481 11.936 284.161 9.6C285.857 7.264 287.545 4.904 289.225 2.52H290.377L300.289 16.68H298.489ZM288.577 1.176L276.577 18.024H281.665L284.305 14.304H295.153L297.769 18.024H302.857L291.097 1.176H288.577ZM293.785 3.048L306.265 20.952H299.881L297.457 18.624L296.473 17.232H286.993C286.801 17.52 286.585 17.824 286.345 18.144C286.121 18.464 285.889 18.784 285.649 19.104C285.425 19.44 285.201 19.76 284.977 20.064C284.753 20.384 284.545 20.68 284.353 20.952H277.945L275.4 18.624L288.265 0.576H291.409L293.785 3.048Z" fill="white"/>
</svg>
