<svg width="12" height="12" viewBox="0 0 12 12" fill="none" xmlns="http://www.w3.org/2000/svg">
<g clip-path="url(#clip0_1448_3298)">
<path d="M6 1C3.515 1 1.5 3.015 1.5 5.5C1.5 7.585 2.92 9.335 4.845 9.845L6 11L7.155 9.845C9.08 9.335 10.5 7.585 10.5 5.5C10.5 3.015 8.485 1 6 1ZM6 2C6.83 2 7.5 2.67 7.5 3.5C7.5 4.33 6.83 5 6 5C5.17 5 4.5 4.33 4.5 3.5C4.5 2.67 5.17 2 6 2ZM6 9.15C4.75 9.15 3.645 8.51 3 7.54C3.015 6.545 5 6 6 6C6.995 6 8.985 6.545 9 7.54C8.355 8.51 7.25 9.15 6 9.15Z" fill="black"/>
</g>
<defs>
<clipPath id="clip0_1448_3298">
<rect width="12" height="12" fill="white"/>
</clipPath>
</defs>
</svg>
