<svg width="32" height="32" viewBox="0 0 32 32" fill="none" xmlns="http://www.w3.org/2000/svg">
<g clip-path="url(#clip0_1527_2653)">
<path d="M26.6668 10.6667H22.9202C22.3202 9.62667 21.4935 8.73333 20.4935 8.05333L22.6668 5.88L20.7868 4L17.8935 6.89333C17.2802 6.74667 16.6535 6.66667 16.0002 6.66667C15.3468 6.66667 14.7202 6.74667 14.1202 6.89333L11.2135 4L9.3335 5.88L11.4935 8.05333C10.5068 8.73333 9.68016 9.62667 9.08016 10.6667H5.3335V13.3333H8.12016C8.0535 13.7733 8.00016 14.2133 8.00016 14.6667V16H5.3335V18.6667H8.00016V20C8.00016 20.4533 8.0535 20.8933 8.12016 21.3333H5.3335V24H9.08016C10.4668 26.3867 13.0402 28 16.0002 28C18.9602 28 21.5335 26.3867 22.9202 24H26.6668V21.3333H23.8802C23.9468 20.8933 24.0002 20.4533 24.0002 20V18.6667H26.6668V16H24.0002V14.6667C24.0002 14.2133 23.9468 13.7733 23.8802 13.3333H26.6668V10.6667ZM18.6668 21.3333H13.3335V18.6667H18.6668V21.3333ZM18.6668 16H13.3335V13.3333H18.6668V16Z" fill="black"/>
</g>
<defs>
<clipPath id="clip0_1527_2653">
<rect width="32" height="32" fill="white"/>
</clipPath>
</defs>
</svg>
