<svg width="32" height="32" viewBox="0 0 32 32" fill="none" xmlns="http://www.w3.org/2000/svg">
    <g clip-path="url(#clip0_1402_2560)">
        <path d="M7.99984 25.3333C7.99984 26.8 9.19984 28 10.6665 28H21.3332C22.7998 28 23.9998 26.8 23.9998 25.3333V9.33333H7.99984V25.3333ZM11.2798 15.84L13.1598 13.96L15.9998 16.7867L18.8265 13.96L20.7065 15.84L17.8798 18.6667L20.7065 21.4933L18.8265 23.3733L15.9998 20.5467L13.1732 23.3733L11.2932 21.4933L14.1198 18.6667L11.2798 15.84ZM20.6665 5.33333L19.3332 4H12.6665L11.3332 5.33333H6.6665V8H25.3332V5.33333H20.6665Z" fill="black"/>
    </g>
    <defs>
        <clipPath id="clip0_1402_2560">
            <rect width="32" height="32" fill="white"/>
        </clipPath>
    </defs>
</svg>
