<svg width="16" height="16" viewBox="0 0 16 16" fill="none" xmlns="http://www.w3.org/2000/svg">
<path d="M8 2L8.49388 1.43557C8.21111 1.18814 7.78889 1.18814 7.50612 1.43557L8 2ZM2.66666 6.66667L2.17279 6.10223C2.01002 6.24465 1.91666 6.45039 1.91666 6.66667L2.66666 6.66667ZM13.3333 6.66667L14.0833 6.66667C14.0833 6.45039 13.99 6.24465 13.8272 6.10223L13.3333 6.66667ZM13.3333 13.3333V14.0833C13.5322 14.0833 13.723 14.0043 13.8637 13.8637C14.0043 13.723 14.0833 13.5322 14.0833 13.3333L13.3333 13.3333ZM10 13.3333H9.25C9.25 13.7475 9.58579 14.0833 10 14.0833V13.3333ZM9.41421 9.25245L9.94454 8.72212L9.94454 8.72212L9.41421 9.25245ZM6 13.3333V14.0833C6.41421 14.0833 6.75 13.7475 6.75 13.3333H6ZM2.66667 13.3333L1.91667 13.3333C1.91667 13.7475 2.25245 14.0833 2.66667 14.0833L2.66667 13.3333ZM7.50612 1.43557L2.17279 6.10223L3.16054 7.2311L8.49388 2.56443L7.50612 1.43557ZM13.8272 6.10223L8.49388 1.43557L7.50612 2.56443L12.8395 7.2311L13.8272 6.10223ZM12.5833 6.66667L12.5833 13.3333L14.0833 13.3333L14.0833 6.66667L12.5833 6.66667ZM13.3333 12.5833H10V14.0833H13.3333V12.5833ZM10.75 13.3333V10.6667H9.25V13.3333H10.75ZM10.75 10.6667C10.75 9.93732 10.4603 9.23785 9.94454 8.72212L8.88388 9.78278C9.1183 10.0172 9.25 10.3351 9.25 10.6667H10.75ZM9.94454 8.72212C9.42882 8.2064 8.72935 7.91667 8 7.91667V9.41667C8.33152 9.41667 8.64946 9.54836 8.88388 9.78278L9.94454 8.72212ZM8 7.91667C7.27066 7.91667 6.57118 8.2064 6.05546 8.72212L7.11612 9.78278C7.35054 9.54836 7.66848 9.41667 8 9.41667V7.91667ZM6.05546 8.72212C5.53973 9.23785 5.25 9.93732 5.25 10.6667H6.75C6.75 10.3351 6.8817 10.0172 7.11612 9.78278L6.05546 8.72212ZM5.25 10.6667V13.3333H6.75V10.6667H5.25ZM6 12.5833H2.66667V14.0833H6V12.5833ZM3.41667 13.3333L3.41666 6.66667L1.91666 6.66667L1.91667 13.3333L3.41667 13.3333Z" fill="black"/>
</svg>
