<svg width="28" height="28" viewBox="0 0 28 28" fill="none" xmlns="http://www.w3.org/2000/svg">
<path d="M12.8542 21.9998H15.5209V19.3332H12.8542V21.9998ZM14.1876 0.666504C6.82758 0.666504 0.854248 6.63984 0.854248 13.9998C0.854248 21.3598 6.82758 27.3332 14.1876 27.3332C21.5476 27.3332 27.5209 21.3598 27.5209 13.9998C27.5209 6.63984 21.5476 0.666504 14.1876 0.666504ZM14.1876 24.6665C8.30758 24.6665 3.52091 19.8798 3.52091 13.9998C3.52091 8.11984 8.30758 3.33317 14.1876 3.33317C20.0676 3.33317 24.8542 8.11984 24.8542 13.9998C24.8542 19.8798 20.0676 24.6665 14.1876 24.6665ZM14.1876 5.99984C11.2409 5.99984 8.85425 8.3865 8.85425 11.3332H11.5209C11.5209 9.8665 12.7209 8.6665 14.1876 8.6665C15.6542 8.6665 16.8542 9.8665 16.8542 11.3332C16.8542 13.9998 12.8542 13.6665 12.8542 17.9998H15.5209C15.5209 14.9998 19.5209 14.6665 19.5209 11.3332C19.5209 8.3865 17.1342 5.99984 14.1876 5.99984Z" fill="black"/>
</svg>
