<svg width="28" height="28" viewBox="0 0 28 28" fill="none" xmlns="http://www.w3.org/2000/svg">
<path d="M12.6667 21.9998H15.3334V19.3332H12.6667V21.9998ZM14.0001 0.666504C6.64008 0.666504 0.666748 6.63984 0.666748 13.9998C0.666748 21.3598 6.64008 27.3332 14.0001 27.3332C21.3601 27.3332 27.3334 21.3598 27.3334 13.9998C27.3334 6.63984 21.3601 0.666504 14.0001 0.666504ZM14.0001 24.6665C8.12008 24.6665 3.33341 19.8798 3.33341 13.9998C3.33341 8.11984 8.12008 3.33317 14.0001 3.33317C19.8801 3.33317 24.6667 8.11984 24.6667 13.9998C24.6667 19.8798 19.8801 24.6665 14.0001 24.6665ZM14.0001 5.99984C11.0534 5.99984 8.66675 8.3865 8.66675 11.3332H11.3334C11.3334 9.8665 12.5334 8.6665 14.0001 8.6665C15.4667 8.6665 16.6667 9.8665 16.6667 11.3332C16.6667 13.9998 12.6667 13.6665 12.6667 17.9998H15.3334C15.3334 14.9998 19.3334 14.6665 19.3334 11.3332C19.3334 8.3865 16.9467 5.99984 14.0001 5.99984Z" fill="black"/>
</svg>
