<svg width="32" height="32" viewBox="0 0 32 32" fill="none" xmlns="http://www.w3.org/2000/svg">
<g clip-path="url(#clip0_1401_2557)">
<path d="M22.6667 4H6.66667C5.18667 4 4 5.2 4 6.66667V25.3333C4 26.8 5.18667 28 6.66667 28H25.3333C26.8 28 28 26.8 28 25.3333V9.33333L22.6667 4ZM16 25.3333C13.7867 25.3333 12 23.5467 12 21.3333C12 19.12 13.7867 17.3333 16 17.3333C18.2133 17.3333 20 19.12 20 21.3333C20 23.5467 18.2133 25.3333 16 25.3333ZM20 12H6.66667V6.66667H20V12Z" fill="black"/>
</g>
<defs>
<clipPath id="clip0_1401_2557">
<rect width="32" height="32" fill="white"/>
</clipPath>
</defs>
</svg>
