<svg width="32" height="32" viewBox="0 0 32 32" fill="none" xmlns="http://www.w3.org/2000/svg">
<path d="M16 8C16 7.26667 15.4 6.66667 14.6667 6.66667H7.76L8.64 2.42667L8.66667 2.12C8.66667 1.70667 8.49333 1.33333 8.22667 1.05333L7.17333 0L0.586667 6.58667C0.226667 6.94667 0 7.45333 0 8V16.6667C0 17.7733 0.893333 18.6667 2 18.6667H11C11.8267 18.6667 12.5333 18.16 12.84 17.4533L15.8533 10.4C15.9467 10.1733 16 9.92 16 9.66667V8ZM30 13.3333H21C20.1733 13.3333 19.4667 13.84 19.16 14.5467L16.1467 21.6C16.0533 21.8267 16 22.08 16 22.3333V24C16 24.7333 16.6 25.3333 17.3333 25.3333H24.24L23.36 29.5733L23.3333 29.8933C23.3333 30.3067 23.5067 30.68 23.7733 30.96L24.8267 32L31.4133 25.4133C31.7733 25.0533 32 24.5467 32 24V15.3333C32 14.2267 31.1067 13.3333 30 13.3333Z" fill="black"/>
</svg>
