<svg width="1440" height="8" viewBox="0 0 1440 8" fill="none" xmlns="http://www.w3.org/2000/svg">
<rect width="21" height="8" rx="2" fill="#F4F2E6"/>
<rect x="27" width="21" height="8" rx="2" fill="#F4F2E6"/>
<rect x="54" width="21" height="8" rx="2" fill="#F4F2E6"/>
<rect x="81" width="21" height="8" rx="2" fill="#F4F2E6"/>
<rect x="108" width="21" height="8" rx="2" fill="#F4F2E6"/>
<rect x="135" width="21" height="8" rx="2" fill="#F4F2E6"/>
<rect x="162" width="21" height="8" rx="2" fill="#F4F2E6"/>
<rect x="189" width="21" height="8" rx="2" fill="#F4F2E6"/>
<rect x="216" width="21" height="8" rx="2" fill="#F4F2E6"/>
<rect x="243" width="21" height="8" rx="2" fill="#F4F2E6"/>
<rect x="270" width="21" height="8" rx="2" fill="#F4F2E6"/>
<rect x="297" width="21" height="8" rx="2" fill="#F4F2E6"/>
<rect x="324" width="21" height="8" rx="2" fill="#F4F2E6"/>
<rect x="351" width="21" height="8" rx="2" fill="#F4F2E6"/>
<rect x="378" width="21" height="8" rx="2" fill="#F4F2E6"/>
<rect x="405" width="21" height="8" rx="2" fill="#F4F2E6"/>
<rect x="432" width="21" height="8" rx="2" fill="#F4F2E6"/>
<rect x="459" width="21" height="8" rx="2" fill="#F4F2E6"/>
<rect x="486" width="21" height="8" rx="2" fill="#F4F2E6"/>
<rect x="513" width="21" height="8" rx="2" fill="#F4F2E6"/>
<rect x="540" width="21" height="8" rx="2" fill="#F4F2E6"/>
<rect x="567" width="21" height="8" rx="2" fill="#F4F2E6"/>
<rect x="594" width="21" height="8" rx="2" fill="#F4F2E6"/>
<rect x="621" width="21" height="8" rx="2" fill="#F4F2E6"/>
<rect x="648" width="21" height="8" rx="2" fill="#F4F2E6"/>
<rect x="675" width="21" height="8" rx="2" fill="#F4F2E6"/>
<rect x="702" width="21" height="8" rx="2" fill="#F4F2E6"/>
<rect x="729" width="21" height="8" rx="2" fill="#F4F2E6"/>
<rect x="756" width="21" height="8" rx="2" fill="#F4F2E6"/>
<rect x="783" width="21" height="8" rx="2" fill="#F4F2E6"/>
<rect x="810" width="21" height="8" rx="2" fill="#F4F2E6"/>
<rect x="837" width="21" height="8" rx="2" fill="#F4F2E6"/>
<rect x="864" width="21" height="8" rx="2" fill="#F4F2E6"/>
<rect x="891" width="21" height="8" rx="2" fill="#F4F2E6"/>
<rect x="918" width="21" height="8" rx="2" fill="#F4F2E6"/>
<rect x="945" width="21" height="8" rx="2" fill="#F4F2E6"/>
<rect x="972" width="21" height="8" rx="2" fill="#F4F2E6"/>
<rect x="999" width="21" height="8" rx="2" fill="#F4F2E6"/>
<rect x="1026" width="21" height="8" rx="2" fill="#F4F2E6"/>
<rect x="1053" width="21" height="8" rx="2" fill="#F4F2E6"/>
<rect x="1080" width="21" height="8" rx="2" fill="#F4F2E6"/>
<rect x="1107" width="21" height="8" rx="2" fill="#F4F2E6"/>
<rect x="1134" width="21" height="8" rx="2" fill="#F4F2E6"/>
<rect x="1161" width="21" height="8" rx="2" fill="#F4F2E6"/>
<rect x="1188" width="21" height="8" rx="2" fill="#F4F2E6"/>
<rect x="1215" width="21" height="8" rx="2" fill="#F4F2E6"/>
<rect x="1242" width="21" height="8" rx="2" fill="#F4F2E6"/>
<rect x="1269" width="21" height="8" rx="2" fill="#F4F2E6"/>
<rect x="1296" width="21" height="8" rx="2" fill="#F4F2E6"/>
<rect x="1323" width="21" height="8" rx="2" fill="#F4F2E6"/>
<rect x="1350" width="21" height="8" rx="2" fill="#F4F2E6"/>
<rect x="1377" width="21" height="8" rx="2" fill="#F4F2E6"/>
<rect x="1404" width="21" height="8" rx="2" fill="#F4F2E6"/>
<rect x="1431" width="21" height="8" rx="2" fill="#F4F2E6"/>
</svg>
